<svg width="152" height="30" fill="none" xmlns="http://www.w3.org/2000/svg"><path d="M8.477 7.842c-.123 1.053-.513 1.866-1.17 2.44-.651.57-1.52.855-2.604.855-1.176 0-2.119-.422-2.83-1.265C1.167 9.03.813 7.901.813 6.488v-.957c0-.925.165-1.738.493-2.44.332-.702.802-1.24 1.408-1.613C3.32 1.099 4.022.91 4.819.91c1.058 0 1.905.296 2.543.889.638.588 1.01 1.403 1.115 2.447h-1.32c-.114-.793-.362-1.367-.745-1.723-.378-.355-.91-.533-1.593-.533-.838 0-1.497.31-1.975.93-.474.62-.711 1.502-.711 2.645v.964c0 1.08.225 1.94.677 2.577.45.638 1.082.957 1.893.957.73 0 1.288-.164 1.675-.492.392-.332.652-.909.78-1.73h1.319zm1.264-.609c0-.724.141-1.376.424-1.955a3.226 3.226 0 011.19-1.34c.51-.314 1.091-.471 1.743-.471 1.007 0 1.82.348 2.44 1.046.624.697.937 1.624.937 2.782v.089c0 .72-.14 1.367-.417 1.941a3.114 3.114 0 01-1.183 1.333c-.51.32-1.098.479-1.764.479-1.002 0-1.816-.349-2.44-1.046-.62-.697-.93-1.62-.93-2.769v-.089zm1.272.15c0 .821.189 1.48.567 1.976.383.497.893.745 1.531.745.643 0 1.153-.25 1.532-.751.378-.506.567-1.213.567-2.12 0-.81-.194-1.467-.581-1.968a1.825 1.825 0 00-1.531-.76c-.625 0-1.128.25-1.511.746-.383.497-.574 1.208-.574 2.133zM22.839 4.65h-3.411V11h-1.272V3.604h4.683v1.045zm6.89-1.045V11h-1.271V4.65h-2.516l-.15 2.768c-.082 1.271-.296 2.18-.643 2.728-.341.546-.886.831-1.633.854h-.506V9.886l.362-.028c.41-.045.704-.282.882-.71.178-.429.292-1.222.342-2.38l.136-3.164h4.998zM36.327 11c-.073-.146-.132-.406-.178-.78-.588.611-1.29.917-2.105.917-.73 0-1.328-.205-1.798-.616a2.016 2.016 0 01-.697-1.572c0-.77.292-1.367.875-1.79.588-.43 1.413-.643 2.474-.643h1.23v-.581c0-.442-.131-.793-.396-1.053-.264-.264-.654-.397-1.169-.397-.45 0-.829.114-1.134.342-.306.228-.458.504-.458.827h-1.272c0-.369.13-.724.39-1.066a2.7 2.7 0 011.066-.82c.451-.2.946-.301 1.484-.301.852 0 1.52.214 2.003.642.483.424.733 1.01.752 1.757v3.405c0 .679.086 1.219.26 1.62V11h-1.327zm-2.099-.964c.397 0 .773-.102 1.129-.307a1.86 1.86 0 00.772-.8V7.41h-.991c-1.55 0-2.325.454-2.325 1.36 0 .397.133.707.397.93.264.223.604.335 1.018.335zm8.115.069c.451 0 .845-.137 1.182-.41.338-.274.524-.616.561-1.026h1.196a2.293 2.293 0 01-.437 1.21 2.875 2.875 0 01-1.08.916c-.447.228-.92.342-1.422.342-1.007 0-1.81-.335-2.407-1.005-.592-.675-.888-1.595-.888-2.762v-.212c0-.72.132-1.36.396-1.92a3.032 3.032 0 011.135-1.306c.497-.31 1.082-.465 1.757-.465.83 0 1.517.248 2.064.745.552.497.846 1.142.882 1.934h-1.196c-.037-.478-.219-.87-.547-1.175-.323-.31-.724-.465-1.203-.465-.643 0-1.142.232-1.497.697-.351.46-.526 1.128-.526 2.003v.24c0 .852.175 1.508.526 1.968.35.46.852.69 1.504.69zm9.146-6.501h1.265V11h-1.265V5.606L48.078 11h-1.266V3.604h1.265v5.4l3.411-5.4zm6.364 7.533c-1.002 0-1.818-.328-2.447-.985-.629-.66-.943-1.542-.943-2.645v-.233c0-.733.139-1.387.417-1.962a3.284 3.284 0 011.176-1.353 2.958 2.958 0 011.64-.492c.962 0 1.71.317 2.242.95.534.633.8 1.54.8 2.72v.527h-5.01c.018.73.23 1.32.635 1.77.41.447.93.67 1.559.67.447 0 .825-.09 1.135-.273a2.85 2.85 0 00.813-.725l.773.602c-.62.953-1.55 1.429-2.79 1.429zm-.157-6.631c-.51 0-.938.187-1.285.56-.346.37-.56.89-.642 1.559h3.705v-.096c-.037-.642-.21-1.139-.52-1.49-.31-.355-.729-.533-1.258-.533zM71.723 11h-1.265V7.842h-3.397V11h-1.272V3.604h1.272V6.81h3.397V3.604h1.265V11zm6.603 0c-.073-.146-.132-.406-.178-.78-.587.611-1.29.917-2.105.917-.73 0-1.329-.205-1.798-.616a2.016 2.016 0 01-.697-1.572c0-.77.291-1.367.875-1.79.588-.43 1.413-.643 2.474-.643h1.23v-.581c0-.442-.131-.793-.396-1.053-.264-.264-.653-.397-1.168-.397-.452 0-.83.114-1.135.342-.306.228-.458.504-.458.827h-1.272c0-.369.13-.724.39-1.066a2.7 2.7 0 011.066-.82c.452-.2.946-.301 1.484-.301.852 0 1.52.214 2.003.642.483.424.733 1.01.752 1.757v3.405c0 .679.086 1.219.26 1.62V11h-1.327zm-2.098-.964c.396 0 .772-.102 1.128-.307a1.86 1.86 0 00.772-.8V7.41h-.991c-1.55 0-2.325.454-2.325 1.36 0 .397.133.707.397.93.264.223.604.335 1.019.335zm8.285-2.803c0-.724.141-1.376.423-1.955.288-.578.684-1.025 1.19-1.34.51-.314 1.091-.471 1.743-.471 1.007 0 1.82.348 2.44 1.046.625.697.937 1.624.937 2.782v.089c0 .72-.139 1.367-.417 1.941a3.114 3.114 0 01-1.182 1.333c-.51.32-1.099.479-1.764.479-1.003 0-1.816-.349-2.44-1.046-.62-.697-.93-1.62-.93-2.769v-.089zm1.271.15c0 .821.19 1.48.568 1.976.382.497.893.745 1.53.745.643 0 1.154-.25 1.532-.751.378-.506.567-1.213.567-2.12 0-.81-.193-1.467-.58-1.968a1.827 1.827 0 00-1.532-.76c-.624 0-1.128.25-1.51.746-.383.497-.575 1.208-.575 2.133zM96.08 4.028c.93 0 1.673.313 2.229.937.56.62.84 1.438.84 2.454v.116c0 .697-.134 1.322-.403 1.873a3.008 3.008 0 01-1.162 1.278c-.501.301-1.08.452-1.736.452-.994 0-1.794-.33-2.4-.992-.606-.665-.909-1.556-.909-2.672v-.616c0-1.554.287-2.789.861-3.705.58-.916 1.431-1.474 2.557-1.674.638-.114 1.069-.253 1.292-.417a.794.794 0 00.335-.677h1.04c0 .57-.13 1.014-.39 1.333-.256.319-.666.544-1.231.677l-.943.211c-.752.178-1.317.479-1.696.903-.373.42-.617.98-.731 1.681.67-.774 1.486-1.162 2.447-1.162zm-.246 1.04c-.62 0-1.112.209-1.477.628-.364.415-.546.992-.546 1.73v.11c0 .792.182 1.421.546 1.886.37.46.866.69 1.49.69.63 0 1.126-.232 1.49-.697.365-.465.548-1.144.548-2.037 0-.697-.185-1.256-.554-1.675-.364-.424-.864-.636-1.497-.636zm10.862 2.317c0 1.125-.257 2.032-.772 2.72-.515.689-1.212 1.033-2.092 1.033-.898 0-1.604-.285-2.119-.855v3.562h-1.265V3.604h1.156l.061.82c.515-.638 1.231-.957 2.147-.957.888 0 1.59.335 2.105 1.005.52.67.779 1.602.779 2.796v.116zm-1.264-.144c0-.834-.178-1.492-.534-1.975-.355-.483-.843-.725-1.462-.725-.766 0-1.34.34-1.723 1.019v3.534c.378.674.957 1.011 1.736 1.011.606 0 1.087-.239 1.443-.717.36-.483.54-1.199.54-2.147zm7.444 3.76c-.073-.146-.132-.406-.178-.78-.588.611-1.289.917-2.105.917-.729 0-1.329-.205-1.798-.616a2.015 2.015 0 01-.697-1.572c0-.77.291-1.367.875-1.79.588-.43 1.412-.643 2.474-.643h1.231v-.581c0-.442-.132-.793-.397-1.053-.264-.264-.654-.397-1.169-.397-.451 0-.829.114-1.134.342-.306.228-.458.504-.458.827h-1.272c0-.369.13-.724.39-1.066a2.7 2.7 0 011.066-.82c.451-.2.946-.301 1.484-.301.852 0 1.519.214 2.002.642.484.424.734 1.01.752 1.757v3.405c0 .679.087 1.219.26 1.62V11h-1.326zm-2.099-.964a2.22 2.22 0 001.128-.307c.356-.206.613-.472.773-.8V7.41h-.991c-1.55 0-2.325.454-2.325 1.36 0 .397.132.707.397.93.264.223.604.335 1.018.335zm8.395-6.009c.93 0 1.672.313 2.228.937.561.62.841 1.438.841 2.454v.116c0 .697-.134 1.322-.403 1.873a3.007 3.007 0 01-1.162 1.278c-.501.301-1.08.452-1.737.452-.993 0-1.793-.33-2.399-.992-.606-.665-.909-1.556-.909-2.672v-.616c0-1.554.287-2.789.861-3.705.579-.916 1.431-1.474 2.557-1.674.638-.114 1.069-.253 1.292-.417a.795.795 0 00.335-.677h1.039c0 .57-.13 1.014-.39 1.333-.255.319-.665.544-1.23.677l-.944.211c-.752.178-1.317.479-1.695.903-.374.42-.617.98-.731 1.681.67-.774 1.485-1.162 2.447-1.162zm-.246 1.04c-.62 0-1.112.209-1.477.628-.364.415-.547.992-.547 1.73v.11c0 .792.183 1.421.547 1.886.369.46.866.69 1.49.69.629 0 1.126-.232 1.491-.697.364-.465.547-1.144.547-2.037 0-.697-.185-1.256-.554-1.675-.365-.424-.864-.636-1.497-.636zm4.402 2.166c0-.724.141-1.376.424-1.955a3.222 3.222 0 011.189-1.34c.511-.314 1.092-.471 1.744-.471 1.007 0 1.82.348 2.44 1.046.624.697.937 1.624.937 2.782v.089c0 .72-.139 1.367-.417 1.941a3.12 3.12 0 01-1.183 1.333c-.51.32-1.098.479-1.764.479-1.002 0-1.816-.349-2.44-1.046-.62-.697-.93-1.62-.93-2.769v-.089zm1.272.15c0 .821.189 1.48.567 1.976.383.497.893.745 1.531.745.643 0 1.153-.25 1.532-.751.378-.506.567-1.213.567-2.12 0-.81-.194-1.467-.581-1.968a1.825 1.825 0 00-1.531-.76c-.625 0-1.128.25-1.511.746-.383.497-.574 1.208-.574 2.133zm12.393-2.754h-2.481V11h-1.265V4.629h-2.434V3.604h6.18v1.025zm3.534 3.22h-.922V11h-1.272V3.604h1.272v3.13h.827l2.488-3.13h1.531l-2.926 3.554L144.696 11h-1.606l-2.564-3.151zm7.677 1.298l1.723-5.543h1.353l-2.973 8.538c-.461 1.23-1.192 1.845-2.195 1.845l-.239-.02-.472-.09v-1.025l.342.028c.429 0 .761-.087.998-.26.242-.173.44-.49.595-.95l.28-.752-2.638-7.314h1.38l1.846 5.543z" fill="#9C9C9C"/><path d="M7.007 27H5.742v-6.35H2.338V27H1.066v-7.396h5.94V27zm5.1.137c-1.003 0-1.819-.328-2.448-.985-.629-.66-.943-1.542-.943-2.645v-.233c0-.733.139-1.387.417-1.962a3.283 3.283 0 011.176-1.353 2.958 2.958 0 011.64-.492c.962 0 1.71.317 2.242.95.534.633.8 1.54.8 2.72v.527h-5.01c.018.73.23 1.32.635 1.77.41.447.93.67 1.559.67.446 0 .825-.09 1.135-.273a2.85 2.85 0 00.813-.725l.773.602c-.62.953-1.55 1.429-2.79 1.429zm-.158-6.631c-.51 0-.939.187-1.285.56-.346.37-.56.89-.643 1.559h3.706v-.096c-.037-.642-.21-1.139-.52-1.49-.31-.355-.73-.533-1.258-.533zm10.76 2.878c0 1.125-.258 2.032-.773 2.72-.514.689-1.212 1.033-2.091 1.033-.898 0-1.604-.285-2.12-.855v3.562h-1.264v-10.24h1.155l.062.82c.515-.638 1.23-.957 2.146-.957.889 0 1.59.335 2.106 1.005.52.67.779 1.602.779 2.796v.116zm-1.265-.144c0-.834-.177-1.492-.533-1.975-.355-.483-.843-.725-1.463-.725-.765 0-1.34.34-1.722 1.019v3.534c.378.674.957 1.012 1.736 1.012.606 0 1.087-.24 1.442-.718.36-.483.54-1.199.54-2.147zm5.845 2.865c.451 0 .845-.137 1.183-.41.337-.274.524-.616.56-1.026h1.197a2.293 2.293 0 01-.438 1.21 2.875 2.875 0 01-1.08.916c-.447.228-.92.342-1.422.342-1.007 0-1.81-.335-2.406-1.005-.593-.675-.889-1.595-.889-2.762v-.212c0-.72.132-1.36.397-1.92a3.018 3.018 0 011.134-1.306c.497-.31 1.083-.465 1.757-.465.83 0 1.518.248 2.065.745.551.497.845 1.142.881 1.934h-1.196c-.036-.478-.218-.87-.547-1.175-.323-.31-.724-.465-1.203-.465-.642 0-1.141.232-1.497.697-.35.46-.526 1.128-.526 2.003v.24c0 .851.175 1.508.526 1.968.351.46.852.69 1.504.69zm4.026-2.872c0-.724.142-1.376.424-1.955a3.226 3.226 0 011.19-1.34c.51-.314 1.091-.471 1.743-.471 1.007 0 1.82.348 2.44 1.046.625.697.937 1.624.937 2.782v.089c0 .72-.14 1.367-.417 1.941a3.114 3.114 0 01-1.183 1.333c-.51.32-1.098.479-1.764.479-1.002 0-1.816-.349-2.44-1.046-.62-.697-.93-1.62-.93-2.769v-.089zm1.272.15c0 .821.189 1.48.567 1.976.383.497.893.745 1.531.745.643 0 1.154-.25 1.532-.752.378-.505.567-1.212.567-2.119 0-.81-.194-1.467-.58-1.968a1.828 1.828 0 00-1.532-.76c-.624 0-1.128.25-1.51.746-.384.497-.575 1.208-.575 2.133zM45.677 27h-1.264v-3.158h-3.397V27h-1.272v-7.396h1.272v3.206h3.397v-3.206h1.265V27zm6.604 0c-.073-.146-.132-.406-.178-.78-.587.611-1.29.917-2.105.917-.73 0-1.328-.205-1.798-.616a2.016 2.016 0 01-.697-1.572c0-.77.292-1.367.875-1.79.588-.43 1.413-.643 2.474-.643h1.231v-.581c0-.442-.132-.793-.396-1.053-.265-.265-.654-.397-1.17-.397-.45 0-.829.114-1.134.342-.306.228-.458.504-.458.827h-1.272c0-.369.13-.724.39-1.066a2.7 2.7 0 011.066-.82c.451-.2.946-.301 1.484-.301.852 0 1.52.214 2.003.642.483.424.733 1.01.752 1.757v3.404c0 .68.086 1.22.26 1.62V27H52.28zm-2.098-.964a2.21 2.21 0 001.127-.308 1.86 1.86 0 00.773-.8v-1.517h-.991c-1.55 0-2.324.454-2.324 1.36 0 .397.132.707.396.93.264.223.604.335 1.019.335zm11.21-6.433V27h-1.27v-6.35h-2.517l-.15 2.768c-.082 1.271-.296 2.18-.643 2.727-.341.547-.886.832-1.633.855h-.506v-1.114l.362-.028c.41-.045.704-.282.882-.71.178-.429.292-1.222.342-2.38l.137-3.165h4.997zm3.412 2.55h1.92c.84.01 1.502.228 1.99.657.487.428.731 1.009.731 1.743 0 .738-.25 1.33-.752 1.777-.501.447-1.175.67-2.023.67H63.54v-7.396h1.265v2.55zm0 1.033v2.782h1.88c.474 0 .84-.121 1.1-.363.26-.246.39-.58.39-1.004 0-.41-.128-.745-.383-1.005-.25-.265-.604-.401-1.06-.41h-1.927zM77.068 27h-1.264v-3.158h-3.398V27h-1.271v-7.396h1.271v3.206h3.398v-3.206h1.264V27zm3.418-4.847h1.921c.839.01 1.502.228 1.99.657.487.428.73 1.009.73 1.743 0 .738-.25 1.33-.751 1.777-.501.447-1.176.67-2.023.67h-3.131v-7.396h1.264v2.55zM87.766 27h-1.27v-7.396h1.27V27zm-7.28-3.814v2.782h1.88c.474 0 .841-.121 1.1-.363.26-.246.39-.58.39-1.004 0-.41-.127-.745-.382-1.005-.251-.265-.604-.401-1.06-.41h-1.928zm11.97-.882l1.64-2.7h1.477l-2.42 3.657L95.648 27h-1.462l-1.71-2.769L90.769 27h-1.47l2.495-3.74-2.42-3.657h1.463l1.62 2.7zm7.875 3.664l.438-.54c.492-.638.772-1.595.84-2.871l.117-2.953h4.764v6.364h.95v3.206h-1.264V27h-5.161v2.174H99.75l.007-3.206h.574zm1.497 0h3.398v-5.195h-2.277l-.075 1.763c-.077 1.472-.426 2.616-1.046 3.432zM113.408 27c-.073-.146-.132-.406-.178-.78-.587.611-1.289.917-2.105.917-.729 0-1.328-.205-1.798-.616a2.015 2.015 0 01-.697-1.572c0-.77.292-1.367.875-1.79.588-.43 1.413-.643 2.474-.643h1.231v-.581c0-.442-.132-.793-.397-1.053-.264-.265-.653-.397-1.168-.397-.452 0-.83.114-1.135.342-.306.228-.458.504-.458.827h-1.272c0-.369.13-.724.39-1.066a2.69 2.69 0 011.066-.82c.452-.2.946-.301 1.484-.301.852 0 1.52.214 2.003.642.483.424.733 1.01.752 1.757v3.404c0 .68.086 1.22.259 1.62V27h-1.326zm-2.098-.964c.396 0 .772-.102 1.128-.308a1.86 1.86 0 00.772-.8v-1.517h-.991c-1.55 0-2.324.454-2.324 1.36 0 .397.132.707.396.93.264.223.604.335 1.019.335zM122.5 27h-1.265v-3.158h-3.397V27h-1.272v-7.396h1.272v3.206h3.397v-3.206h1.265V27zm8.08 0h-1.265v-3.158h-3.397V27h-1.272v-7.396h1.272v3.206h3.397v-3.206h1.265V27zm3.418-4.847h1.921c.838.01 1.502.228 1.989.657.488.428.732 1.009.732 1.743 0 .738-.251 1.33-.752 1.777-.502.447-1.176.67-2.024.67h-3.131v-7.396h1.265v2.55zm7.28 4.847h-1.271v-7.396h1.271V27zm-7.28-3.814v2.782h1.88c.474 0 .841-.121 1.101-.363.259-.246.389-.58.389-1.004 0-.41-.127-.745-.383-1.005-.25-.265-.603-.401-1.059-.41h-1.928zm11.97-.882l1.64-2.7h1.477l-2.42 3.657L149.16 27h-1.463l-1.709-2.769L144.279 27h-1.469l2.495-3.74-2.42-3.657h1.463l1.62 2.7z" fill="#52C4C4"/><path d="M0 28.367h149.468v.684H0v-.684z" fill="#52C4C4"/></svg>