<svg width="20" height="20" fill="none" xmlns="http://www.w3.org/2000/svg"><path d="M16.923 0H2.476C1.148 0 .068 1.121.068 2.5v15c0 1.379 1.08 2.5 2.408 2.5h14.447c1.328 0 2.408-1.121 2.408-2.5v-15c0-1.379-1.08-2.5-2.408-2.5zM2.476 1.667h14.447c.442 0 .802.373.802.833v5.905L15.082 5.66a.782.782 0 00-1.135 0l-5.651 5.87-2.042-2.12a.782.782 0 00-1.135 0l-3.446 3.578V2.5c0-.46.36-.833.803-.833zm14.447 16.666H2.476c-.443 0-.803-.373-.803-.833v-2.155l4.013-4.167 4.65 4.828a.784.784 0 001.135 0 .856.856 0 000-1.178l-2.041-2.12 5.085-5.28 3.21 3.334V17.5c0 .46-.36.833-.802.833z" fill="#52C4C4"/><path d="M6.489 5c0 .92-.719 1.667-1.605 1.667-.887 0-1.605-.747-1.605-1.667s.718-1.667 1.605-1.667c.886 0 1.605.747 1.605 1.667z" fill="#52C4C4"/></svg>