<svg width="60" height="60" fill="none" xmlns="http://www.w3.org/2000/svg"><path d="M24 39.946c-.308 0-.61.126-.828.344a1.18 1.18 0 00-.344.828c0 .308.125.61.344.829.218.218.52.343.828.343.308 0 .61-.125.828-.343a1.18 1.18 0 00.344-.829c0-.308-.125-.61-.344-.828a1.18 1.18 0 00-.828-.344z" fill="url(#paint0_linear)"/><path d="M24 26.956c5.17 0 9.375-4.206 9.375-9.375 0-5.17-4.206-9.375-9.375-9.375-5.17 0-9.375 4.205-9.375 9.375 0 5.169 4.206 9.375 9.375 9.375zm0-16.407a7.04 7.04 0 017.031 7.032A7.04 7.04 0 0124 24.61a7.04 7.04 0 01-7.031-7.03A7.04 7.04 0 0124 10.549z" fill="url(#paint1_linear)"/><path d="M55.078 6.329H43.61l-3.349-3.35a1.172 1.172 0 00-1.657 0l-1.248 1.249a15.1 15.1 0 00-3.115-1.29V1.171A1.174 1.174 0 0033.068 0h-6.136c-.647 0-1.172.525-1.172 1.172v1.765a15.098 15.098 0 00-3.115 1.291L21.397 2.98a1.172 1.172 0 00-1.657 0l-3.35 3.349H4.923A4.927 4.927 0 000 11.25v33.046a4.927 4.927 0 004.922 4.922H24.56v3.664a5.818 5.818 0 01-2.737 4.953A1.172 1.172 0 0022.446 60h15.108a1.172 1.172 0 00.623-2.165 5.818 5.818 0 01-2.737-4.953v-3.664h19.638A4.927 4.927 0 0060 44.297V11.251a4.927 4.927 0 00-4.922-4.922zm-34.51-.863l1.063 1.063c.389.388.994.455 1.458.16a12.785 12.785 0 014.098-1.698c.536-.12.917-.595.917-1.144V2.344h3.792v1.503c0 .55.381 1.025.917 1.144a12.77 12.77 0 014.098 1.698c.463.294 1.07.228 1.458-.16l1.063-1.063 2.681 2.681-1.063 1.062a1.172 1.172 0 00-.16 1.458 12.788 12.788 0 011.7 4.098c.119.536.594.918 1.143.918h1.501v3.791h-1.5c-.55 0-1.025.382-1.144.918a12.791 12.791 0 01-1.698 4.1 1.172 1.172 0 00.16 1.457l1.06 1.061-2.68 2.682-1.06-1.061a1.172 1.172 0 00-1.459-.16 12.787 12.787 0 01-4.1 1.7 1.17 1.17 0 00-.917 1.143v1.499h-3.792v-1.499c0-.549-.381-1.024-.917-1.144a12.788 12.788 0 01-4.1-1.699 1.172 1.172 0 00-1.458.16l-1.06 1.06-2.682-2.68 1.061-1.062a1.17 1.17 0 00.16-1.457 12.786 12.786 0 01-1.698-4.1 1.172 1.172 0 00-1.144-.917h-1.5v-3.792h1.5c.55 0 1.026-.382 1.145-.918a12.794 12.794 0 011.699-4.098 1.172 1.172 0 00-.16-1.457l-1.063-1.063 2.681-2.681zm14.055 52.19h-9.246a8.16 8.16 0 001.527-4.773v-3.664h6.192v3.664a8.16 8.16 0 001.527 4.774zm20.455-10.78H4.922a2.581 2.581 0 01-2.578-2.579V42.29h22.398a1.172 1.172 0 100-2.344H2.344V11.251a2.581 2.581 0 012.578-2.579h10.26c.056.11.128.212.22.304l1.247 1.247a15.092 15.092 0 00-1.292 3.116h-1.763c-.647 0-1.172.524-1.172 1.172v6.135c0 .648.525 1.172 1.172 1.172h1.762a15.095 15.095 0 001.292 3.117L15.4 26.182a1.172 1.172 0 000 1.657l4.339 4.339c.457.457 1.2.457 1.657 0l1.246-1.246c.99.547 2.032.979 3.117 1.292v1.76c0 .648.525 1.173 1.172 1.173h6.136c.647 0 1.172-.525 1.172-1.172v-1.761a15.09 15.09 0 003.117-1.292l1.246 1.246c.458.457 1.2.457 1.657 0l4.339-4.339a1.17 1.17 0 000-1.657l-1.246-1.247a15.1 15.1 0 001.291-3.117h1.762c.647 0 1.172-.524 1.172-1.172v-6.135c0-.647-.525-1.172-1.172-1.172h-1.763a15.102 15.102 0 00-1.292-3.116l1.25-1.247a1.18 1.18 0 00.218-.304h10.261a2.581 2.581 0 012.578 2.579v28.695H35.29a1.172 1.172 0 000 2.344h22.367v2.007a2.581 2.581 0 01-2.578 2.579z" fill="url(#paint2_linear)"/><defs><linearGradient id="paint0_linear" x1="22.828" y1="42.29" x2="25.25" y2="42.206" gradientUnits="userSpaceOnUse"><stop stop-color="#52C4C4"/><stop offset="1" stop-color="#81E6E6"/></linearGradient><linearGradient id="paint1_linear" x1="14.625" y1="26.956" x2="33.999" y2="26.287" gradientUnits="userSpaceOnUse"><stop stop-color="#52C4C4"/><stop offset="1" stop-color="#81E6E6"/></linearGradient><linearGradient id="paint2_linear" x1="0" y1="60.001" x2="61.996" y2="57.862" gradientUnits="userSpaceOnUse"><stop stop-color="#52C4C4"/><stop offset="1" stop-color="#81E6E6"/></linearGradient></defs></svg>