<svg width="52" height="60" fill="none" xmlns="http://www.w3.org/2000/svg"><path d="M50.062 16.562L22.559 32.278V17.58L50.053 1.87a1 1 0 00-.992-1.737L21.57 15.842 8.58 8.048l11.452-6.166A1 1 0 0019.084.12l-13 7-.008.006-.01.005a.975.975 0 00-.31.287.995.995 0 00-.14.267l-.017.038c-.026.09-.04.184-.04.278v17a1 1 0 00.485.857l11.514 6.909V38l-11.47 6.118a.994.994 0 00-.23.17c-.01.01-.015.022-.025.032a.993.993 0 00-.205.335.996.996 0 00-.07.345v14a1 1 0 002 0V46.667l13 6.934V59a1 1 0 002 0v-5.4l13-6.934V59a1 1 0 002 0V45a1.006 1.006 0 00-.106-.43.981.981 0 00-.169-.25c-.01-.01-.015-.022-.025-.032a.991.991 0 00-.23-.17L25.559 38v-5.134L51.054 18.3a1 1 0 00-.992-1.737zM7.559 9.767l13 7.8v14.667l-13-7.8V9.767zM34.433 45l-12.875 6.867L8.683 45l8.875-4.733V44a3.003 3.003 0 003 3h2a3.003 3.003 0 003-3v-3.733L34.433 45zm-10.875-1a1 1 0 01-1 1h-2a1 1 0 01-1-1V33.968l1.486.89.005.003.007.005a.97.97 0 00.175.073c.022.008.043.02.066.027a.99.99 0 00.515.002c.019-.005.036-.015.054-.021a.93.93 0 00.185-.075l.004-.002 1.503-.86v9.992z" fill="url(#paint0_linear)"/><path d="M8.266 36.708a1 1 0 00-1.414-1.414l-1.294 1.293V30a1 1 0 00-2 0v6.586l-1.292-1.293a1 1 0 00-1.414 1.414l3 3a.997.997 0 001.086.217h.003a.977.977 0 00.294-.197c.01-.009.022-.011.03-.02l3-3z" fill="url(#paint1_linear)"/><path d="M35.851 35.294l-1.293 1.293V30a1 1 0 00-2 0v6.586l-1.293-1.293a1 1 0 00-1.414 1.414l3 3a.997.997 0 001.087.217h.003a.977.977 0 00.294-.197c.009-.009.021-.011.03-.02l3-3a1 1 0 00-1.414-1.414z" fill="url(#paint2_linear)"/><defs><linearGradient id="paint0_linear" x1="5.558" y1="60" x2="53.102" y2="58.743" gradientUnits="userSpaceOnUse"><stop stop-color="#52C4C4"/><stop offset="1" stop-color="#81E6E6"/></linearGradient><linearGradient id="paint1_linear" x1=".571" y1="40.001" x2="8.816" y2="39.795" gradientUnits="userSpaceOnUse"><stop stop-color="#52C4C4"/><stop offset="1" stop-color="#81E6E6"/></linearGradient><linearGradient id="paint2_linear" x1="29.57" y1="40.001" x2="37.816" y2="39.795" gradientUnits="userSpaceOnUse"><stop stop-color="#52C4C4"/><stop offset="1" stop-color="#81E6E6"/></linearGradient></defs></svg>