<svg width="56" height="60" fill="none" xmlns="http://www.w3.org/2000/svg"><path d="M55.89 14.218a3 3 0 00-1.4-1.82 3 3 0 00-4.1 1.1l-.5.87a1 1 0 00-1.359.36l-2.54 4.33-.87-.5a1.001 1.001 0 00-1.37.37 1 1 0 00.37 1.36l.87.5-8.498 14.727-2.1 5.609-1 1.87a3 3 0 00.16 3.239l-2.25 2.76-.629-1.58a1.999 1.999 0 00-3.57-.28l-.36.61-.34-4a2 2 0 00-3.889-.47l-2.46 7.38a1 1 0 00.63 1.26.867.867 0 00.31.079 1 1 0 00.95-.68l2.45-7.378.35 4.059a2 2 0 003.71.86l.37-.61.62 1.57a1.999 1.999 0 003.419.51l2.33-2.95c.257.067.523.101.79.1a3 3 0 002.609-1.48l1-1.67 3.809-4.629 8.588-14.908.87.5a1 1 0 01.37 1.37l-3.999 6.93a.999.999 0 00.32 1.409.999.999 0 001.37-.37l3.999-6.929a2.998 2.998 0 00-1.1-4.1l-.87-.5 2.5-4.329a1 1 0 00-.36-1.36l.5-.87c.41-.7.518-1.536.3-2.319zm-3.77.28a1 1 0 01.61-.47 1.05 1.05 0 01.76.1 1 1 0 01.47.61 1.05 1.05 0 01-.1.76l-.5.87-1.74-1 .5-.87zM38.493 42.414l-.5-.29-1.48-.86 1.42-3.8 3.149 1.82-2.59 3.13zm-3 2.889a1 1 0 01-.3-1.31l.5-.87 1.74 1-.5.86a1 1 0 01-1.44.32zm6.729-7.658l-3.46-2 8-13.858 3.459 2-7.999 13.858zm8.998-15.588l-3.459-2 2-3.46 3.46 2-2 3.46z" fill="url(#paint0_linear)"/><path d="M11.777 44.803l-3.539 3.53-2.12-2.12a1 1 0 10-1.41 1.42l2.12 2.12c.375.371.882.58 1.41.58a2 2 0 001.42-.58l3.529-3.54a1 1 0 00-1.41-1.41z" fill="url(#paint1_linear)"/><path d="M4 47.493a8.498 8.498 0 008.498 8.498 8.498 8.498 0 008.498-8.498 1 1 0 00-2 0 6.499 6.499 0 11-6.498-6.499 6.443 6.443 0 013.9 1.3 1 1 0 101.199-1.6 8.5 8.5 0 00-13.598 6.799z" fill="url(#paint2_linear)"/><path d="M31.994 8a1 1 0 100-2H5.998a1 1 0 00-1 1v3.999a1 1 0 001 1h25.996a1 1 0 100-2H6.998v-2h24.996z" fill="url(#paint3_linear)"/><path d="M8.998 13.998a1 1 0 000 2h19.997a1 1 0 100-2H8.997z" fill="url(#paint4_linear)"/><path d="M34.993 20.997H12.997a1 1 0 000 2h21.996a1 1 0 100-2z" fill="url(#paint5_linear)"/><path d="M28.995 27.996a1 1 0 00-1-1H8a1 1 0 000 2h19.996a1 1 0 001-1z" fill="url(#paint6_linear)"/><path d="M34.993 26.996h-6.999a1 1 0 000 2h7a1 1 0 100-2z" fill="url(#paint7_linear)"/><path d="M17.997 33.995a1 1 0 100-2H7.999a1 1 0 000 2h9.998z" fill="url(#paint8_linear)"/><path d="M17.996 33.995h6.999a1 1 0 100-2h-6.999a1 1 0 000 2z" fill="url(#paint9_linear)"/><path d="M44.992 45.993a1 1 0 00-1 1v9.998a1 1 0 01-1 1H3a1 1 0 01-1-1V3a1 1 0 011-1h39.994a1 1 0 011 1v18.777a1 1 0 002 0V3a3 3 0 00-3-3H2.999A3 3 0 000 3v53.99a3 3 0 003 3h39.993a3 3 0 003-3v-9.998a1 1 0 00-1-1z" fill="url(#paint10_linear)"/><defs><linearGradient id="paint0_linear" x1="20.005" y1="51.992" x2="57.206" y2="50.837" gradientUnits="userSpaceOnUse"><stop stop-color="#52C4C4"/><stop offset="1" stop-color="#81E6E6"/></linearGradient><linearGradient id="paint1_linear" x1="4.413" y1="50.332" x2="13.711" y2="49.831" gradientUnits="userSpaceOnUse"><stop stop-color="#52C4C4"/><stop offset="1" stop-color="#81E6E6"/></linearGradient><linearGradient id="paint2_linear" x1="3.999" y1="55.992" x2="21.562" y2="55.386" gradientUnits="userSpaceOnUse"><stop stop-color="#52C4C4"/><stop offset="1" stop-color="#81E6E6"/></linearGradient><linearGradient id="paint3_linear" x1="4.999" y1="11.998" x2="33.228" y2="7.454" gradientUnits="userSpaceOnUse"><stop stop-color="#52C4C4"/><stop offset="1" stop-color="#81E6E6"/></linearGradient><linearGradient id="paint4_linear" x1="7.998" y1="15.998" x2="27.889" y2="8.45" gradientUnits="userSpaceOnUse"><stop stop-color="#52C4C4"/><stop offset="1" stop-color="#81E6E6"/></linearGradient><linearGradient id="paint5_linear" x1="11.997" y1="22.997" x2="33.19" y2="14.224" gradientUnits="userSpaceOnUse"><stop stop-color="#52C4C4"/><stop offset="1" stop-color="#81E6E6"/></linearGradient><linearGradient id="paint6_linear" x1="6.999" y1="28.996" x2="26.89" y2="21.448" gradientUnits="userSpaceOnUse"><stop stop-color="#52C4C4"/><stop offset="1" stop-color="#81E6E6"/></linearGradient><linearGradient id="paint7_linear" x1="26.995" y1="28.996" x2="36.084" y2="27.585" gradientUnits="userSpaceOnUse"><stop stop-color="#52C4C4"/><stop offset="1" stop-color="#81E6E6"/></linearGradient><linearGradient id="paint8_linear" x1="6.999" y1="33.995" x2="18.901" y2="31.532" gradientUnits="userSpaceOnUse"><stop stop-color="#52C4C4"/><stop offset="1" stop-color="#81E6E6"/></linearGradient><linearGradient id="paint9_linear" x1="16.996" y1="33.995" x2="26.086" y2="32.584" gradientUnits="userSpaceOnUse"><stop stop-color="#52C4C4"/><stop offset="1" stop-color="#81E6E6"/></linearGradient><linearGradient id="paint10_linear" x1="0" y1="59.99" x2="47.545" y2="58.733" gradientUnits="userSpaceOnUse"><stop stop-color="#52C4C4"/><stop offset="1" stop-color="#81E6E6"/></linearGradient></defs></svg>