<svg width="60" height="60" fill="none" xmlns="http://www.w3.org/2000/svg"><path d="M13.708 11.071a.879.879 0 100-1.758.879.879 0 000 1.758zm-7.031 0a.879.879 0 100-1.758.879.879 0 000 1.758zm3.515 0a.879.879 0 100-1.758.879.879 0 000 1.758zM10 20.382h.016l7.947.002a1.19 1.19 0 001.16-.885 1.19 1.19 0 00-.547-1.353l-1.209-.715a10.186 10.186 0 003.018-7.304C20.349 4.623 15.844.08 10.342.002 4.64-.08 0 4.532 0 10.192c0 5.43 4.473 10.073 10 10.19zM4.271 4.186a8.373 8.373 0 016.046-2.427c4.553.066 8.28 3.824 8.31 8.379a8.43 8.43 0 01-2.892 6.411c-.31.27-.472.676-.435 1.085.038.409.271.778.625.987l.008.005-5.909-.002c-4.568-.087-8.266-3.85-8.266-8.431 0-2.276.893-4.41 2.513-6.007zm54.85 54.057h-.879V45.154a8.688 8.688 0 00-5.172-7.937l-4.632-1.986a6.939 6.939 0 002.974-1.87 7.28 7.28 0 001.967-4.94c0-1.666-.582-3.238-1.683-4.547a9.1 9.1 0 01-2.136-5.854v-4.21c0-3.689-1.437-7.156-4.045-9.763A13.718 13.718 0 0035.75 0c-7.613 0-13.808 6.194-13.808 13.808v4.074c0 2.214-.87 4.326-2.283 6.03a7.046 7.046 0 00-.964 7.562 7.042 7.042 0 004.362 3.786l-4.6 2a8.66 8.66 0 00-5.312 7.999v10.346a.879.879 0 101.758 0V45.26a6.91 6.91 0 014.246-6.383l5.765-2.507v5.29h-2.649a2.64 2.64 0 00-1.96.874 2.64 2.64 0 00-.662 2.041l1.45 13.668H.878a.879.879 0 100 1.758H59.12a.879.879 0 100-1.758zm-8.77-33.237c.83.988 1.27 2.168 1.27 3.415 0 1.37-.543 2.73-1.489 3.735-1.001 1.064-2.377 1.65-3.874 1.65h-1.146l-1.504-.645a4.01 4.01 0 01-2.397-3.163 8.65 8.65 0 004.559-7.616v-6.607a11.214 11.214 0 002.032-.044v2.29c0 2.552.905 5.033 2.549 6.985zM35.964 38.88a32.562 32.562 0 01-9.292-1.183v-2.092l.254-.11.006-.003 1.568-.682a5.772 5.772 0 003.353-4.13 8.612 8.612 0 002.41.345h2.863c.84 0 1.65-.123 2.418-.347a5.769 5.769 0 003.37 4.097l1.674.718h.004l.123.054v1.978a32.627 32.627 0 01-8.751 1.355zm8.751.475v2.305H26.672v-2.142a34.35 34.35 0 0018.043-.163zm3.087-25.398c-2.421.327-5.15-.321-7.03-1.778a.879.879 0 00-1.077 1.39c1.23.952 2.712 1.622 4.317 1.96v4.785c-.422.963-.892 1.763-1.952 2.638a6.742 6.742 0 01-1.458.916 2.579 2.579 0 00-2.294-1.405h-2.06a2.58 2.58 0 00-2.576 2.576 2.58 2.58 0 002.576 2.577h2.06a2.58 2.58 0 002.493-1.925c1.176-.448 3.093-2.046 3.093-2.047-.595 3.195-3.402 5.623-6.768 5.623h-2.864a6.894 6.894 0 01-6.886-6.886v-6.794a23.569 23.569 0 008.392-3.008c3.938-2.33 6.464-5.373 7.988-7.778a12.044 12.044 0 014.046 9.156zm-8.676 11.085a.82.82 0 01-.818.816h-2.06a.82.82 0 010-1.637h2.06a.82.82 0 01.818.816v.005zM23.7 13.809c0-6.645 5.406-12.05 12.05-12.05 2.383 0 4.66.687 6.606 1.968-1.402 2.249-3.764 5.14-7.483 7.34a21.854 21.854 0 01-8.32 2.865H23.7v-.123zm-3.414 16.92a5.304 5.304 0 01.725-5.692c1.679-2.023 2.69-4.523 2.689-7.154V15.69h1.918v6.692A8.651 8.651 0 0030.183 30a4.013 4.013 0 01-2.384 3.199l-1.395.607H25.13a5.304 5.304 0 01-4.844-3.078zM50.882 44.39l-1.469 13.853H22.86L21.39 44.39a.868.868 0 01.22-.68.869.869 0 01.654-.291h27.743a.87.87 0 01.653.29c.17.188.247.43.22.681zm5.602 13.853h-5.303l1.449-13.668a2.64 2.64 0 00-.662-2.04 2.64 2.64 0 00-1.96-.874h-3.535V36.3l5.895 2.527a6.925 6.925 0 014.116 6.326v13.089zM36.136 47.49a3.344 3.344 0 00-3.34 3.34 3.344 3.344 0 003.34 3.34 3.344 3.344 0 003.34-3.34 3.344 3.344 0 00-3.34-3.34zm0 4.922c-.872 0-1.582-.71-1.582-1.582a1.584 1.584 0 013.165 0c0 .872-.71 1.582-1.583 1.582z" fill="url(#paint0_linear)"/><defs><linearGradient id="paint0_linear" x1="0" y1="60.001" x2="61.996" y2="57.862" gradientUnits="userSpaceOnUse"><stop stop-color="#52C4C4"/><stop offset="1" stop-color="#81E6E6"/></linearGradient></defs></svg>