<svg width="60" height="61" fill="none" xmlns="http://www.w3.org/2000/svg"><path d="M24.72 39.13a3.05 3.05 0 00-3.046 3.046 3.05 3.05 0 003.046 3.047 3.05 3.05 0 003.047-3.047 3.05 3.05 0 00-3.047-3.047zm0 3.75a.704.704 0 11.002-1.408.704.704 0 01-.002 1.407z" fill="url(#paint0_linear)"/><path d="M34.127 35.246a1.181 1.181 0 00-.829-.344 1.175 1.175 0 00-.828 2c.218.219.52.344.828.344.308 0 .61-.125.829-.343a1.18 1.18 0 00.343-.829c0-.308-.125-.61-.343-.828z" fill="url(#paint1_linear)"/><path d="M54.14 16.875h-1.263L36.347.345a1.172 1.172 0 00-1.657 0l-4.235 4.234L13.518.041a1.172 1.172 0 00-1.436.828L7.794 16.875H4.922A4.927 4.927 0 00.005 21.99a1.168 1.168 0 00-.005.098v32.055c0 3.23 2.629 5.86 5.86 5.86h41.953l.054-.002h6.274A5.868 5.868 0 0060 54.14V22.735a5.866 5.866 0 00-5.86-5.86zm-1.046 2.343h1.047a3.52 3.52 0 013.515 3.516v9.392a2.78 2.78 0 01-2.777 2.777h-1.207v-4.67a5.865 5.865 0 00-5.737-5.856l5.159-5.159zM31.634 6.715l3.884-3.885 15.325 15.324-6.182 6.182h-2.144l2.804-2.804a1.17 1.17 0 000-1.657 2.436 2.436 0 010-3.44c.458-.459.458-1.2 0-1.658l-6.425-6.425a1.172 1.172 0 00-1.657 0 2.435 2.435 0 01-3.441 0 1.172 1.172 0 00-1.657 0L16.156 24.337h-2.144L31.634 6.715zm-3.45 13.219a5.6 5.6 0 00-5.462 4.402H19.47l13.602-13.601a4.793 4.793 0 004.892 0l4.974 4.973a4.794 4.794 0 000 4.893l-3.735 3.736h-5.555a5.6 5.6 0 00-5.463-4.403zm3.023 4.402h-6.044a3.253 3.253 0 013.022-2.059c1.371 0 2.546.855 3.022 2.06zm-18.434-2.075l3.104-11.583a4.75 4.75 0 002.455-.641 4.748 4.748 0 001.784-1.806l5.274 1.413-7.654 7.654-4.963 4.963zm1.27-19.653l14.498 3.885-1.238 1.237L19.73 5.7a1.172 1.172 0 00-1.435.83 2.418 2.418 0 01-1.134 1.477 2.417 2.417 0 01-1.846.243 1.172 1.172 0 00-1.435.829l-4.1 15.296H8.21l5.833-21.767zm-9.121 16.61h2.244l-1.382 5.157h-.862a2.581 2.581 0 01-2.578-2.579 2.581 2.581 0 012.578-2.578zm52.734 34.923a3.52 3.52 0 01-3.515 3.516h-1.643a5.828 5.828 0 001.174-3.514v-4.708h.703a5.593 5.593 0 003.281-1.06v5.767zm0-10.331a3.285 3.285 0 01-3.28 3.28h-24.61a4.927 4.927 0 01-4.922-4.921 4.927 4.927 0 014.922-4.922h3.551a1.172 1.172 0 000-2.344h-3.551c-4.007 0-7.266 3.26-7.266 7.266s3.26 7.266 7.266 7.266h21.562v4.708a3.52 3.52 0 01-3.461 3.515H7.969V44.462a1.172 1.172 0 00-2.344 0V57.65a3.52 3.52 0 01-3.281-3.507V25.987c.75.463 1.633.731 2.578.731h42.89a3.52 3.52 0 013.516 3.516v4.67h-8.473a1.172 1.172 0 000 2.343h12.024a5.088 5.088 0 002.777-.822v7.385z" fill="url(#paint2_linear)"/><path d="M7.625 39.063a1.181 1.181 0 00-.828-.344c-.308 0-.61.126-.829.344a1.18 1.18 0 00-.343.828c0 .308.125.61.343.829.218.218.52.343.829.343.308 0 .61-.125.828-.343a1.18 1.18 0 00.344-.829c0-.308-.126-.61-.344-.828z" fill="url(#paint3_linear)"/><defs><linearGradient id="paint0_linear" x1="21.674" y1="45.223" x2="27.97" y2="45.006" gradientUnits="userSpaceOnUse"><stop stop-color="#52C4C4"/><stop offset="1" stop-color="#81E6E6"/></linearGradient><linearGradient id="paint1_linear" x1="32.126" y1="37.246" x2="34.548" y2="37.163" gradientUnits="userSpaceOnUse"><stop stop-color="#52C4C4"/><stop offset="1" stop-color="#81E6E6"/></linearGradient><linearGradient id="paint2_linear" x1="0" y1="60.002" x2="61.996" y2="57.864" gradientUnits="userSpaceOnUse"><stop stop-color="#52C4C4"/><stop offset="1" stop-color="#81E6E6"/></linearGradient><linearGradient id="paint3_linear" x1="5.625" y1="41.063" x2="8.047" y2="40.98" gradientUnits="userSpaceOnUse"><stop stop-color="#52C4C4"/><stop offset="1" stop-color="#81E6E6"/></linearGradient></defs></svg>