<svg width="60" height="61" fill="none" xmlns="http://www.w3.org/2000/svg"><path d="M58.985 20.285H48.174l-2.282-3.043 2.282-3.043h10.811a1.014 1.014 0 00.93-1.42 11.15 11.15 0 00-10.22-6.693 11.037 11.037 0 00-8.597 4.057h-5.601V6.086a4.057 4.057 0 00-6.328-3.359 4.031 4.031 0 00-7.629 0 4.036 4.036 0 00-6.085 2.028 4.057 4.057 0 00-6.327 3.36v2.028H7.099a7.1 7.1 0 000 14.198h2.029v18.256H6.085a1.014 1.014 0 00-1.014 1.014v16.227a1.014 1.014 0 001.014 1.014h28.398a1.014 1.014 0 001.014-1.014V43.611a1.014 1.014 0 00-1.014-1.014H31.44v-2.225a7.127 7.127 0 011.556-4.435l4.557-5.697a9.156 9.156 0 002-5.702v-.197h1.545a11.039 11.039 0 008.597 4.057 11.15 11.15 0 0010.22-6.694 1.013 1.013 0 00-.93-1.42zM31.44 4.058a2.028 2.028 0 012.028 2.028V14.2h-4.057V6.085a2.028 2.028 0 012.029-2.028zm-8.114 0a2.028 2.028 0 114.057 0V14.2a2.028 2.028 0 00-2.028 2.01 2.082 2.082 0 01-1.435-.578 2.012 2.012 0 01-.594-1.432V4.058zm-6.085 2.028a2.028 2.028 0 114.057 0v10.142a2.029 2.029 0 01-4.057 0V6.086zm-6.085 2.028a2.028 2.028 0 114.057 0v10.142a2.028 2.028 0 01-4.057 0V8.114zm-9.128 9.128a5.077 5.077 0 015.071-5.07h2.029v6.084a4.047 4.047 0 007.87 1.33 4.036 4.036 0 006.086-2.027c.67.456 1.46.699 2.27.697a5.053 5.053 0 002.06 4.057H7.1a5.077 5.077 0 01-5.07-5.07zm31.44 41.582H7.1V44.625h26.37v14.199zm4.057-34.286a7.126 7.126 0 01-1.556 4.435l-4.558 5.697a9.158 9.158 0 00-2 5.702v2.225H11.157V24.34h19.27a1.014 1.014 0 01-1.014 1.015h-2.029a7.107 7.107 0 00-7.1 7.099 1.014 1.014 0 002.03 0 5.077 5.077 0 015.07-5.071h2.029a3.042 3.042 0 003.042-3.043v-1.014a2.028 2.028 0 00-2.028-2.028 3.043 3.043 0 01-3.043-3.043v-2.028h7.1a3.043 3.043 0 013.042 3.042v5.268zm12.17 1.832a9.032 9.032 0 01-7.292-3.651 1.014 1.014 0 00-.811-.406h-2.039V19.27a5.08 5.08 0 00-4.056-4.97v-2.129h6.095a1.013 1.013 0 00.811-.406 9.114 9.114 0 0114.878.406h-9.614a1.014 1.014 0 00-.811.406l-3.043 4.057a1.014 1.014 0 000 1.217l3.043 4.056a1.014 1.014 0 00.811.406h9.614a9.12 9.12 0 01-7.586 4.057z" fill="url(#paint0_linear)"/><path d="M12.17 48.682a3.043 3.043 0 100 6.085 3.043 3.043 0 000-6.085zm0 4.056a1.015 1.015 0 110-2.029 1.015 1.015 0 010 2.03z" fill="url(#paint1_linear)"/><defs><linearGradient id="paint0_linear" x1="0" y1="60.852" x2="61.998" y2="58.743" gradientUnits="userSpaceOnUse"><stop stop-color="#52C4C4"/><stop offset="1" stop-color="#81E6E6"/></linearGradient><linearGradient id="paint1_linear" x1="9.128" y1="54.767" x2="15.415" y2="54.55" gradientUnits="userSpaceOnUse"><stop stop-color="#52C4C4"/><stop offset="1" stop-color="#81E6E6"/></linearGradient></defs></svg>