<svg width="49" height="49" fill="none" xmlns="http://www.w3.org/2000/svg"><path d="M46.875 17.188c.862 0 1.563-.701 1.563-1.563v-12.5c0-.862-.701-1.563-1.563-1.563h-12.5c-.862 0-1.563.701-1.563 1.563V12.5H31.25V3.125c0-.862-.7-1.563-1.563-1.563h-12.5c-.861 0-1.562.701-1.562 1.563V12.5h-5.114c.268-.46.427-.992.427-1.563V7.813H12.5c.862 0 1.563-.701 1.563-1.563V4.687c0-.861-.701-1.562-1.563-1.562h-1.641A3.914 3.914 0 007.03 0H3.906A3.91 3.91 0 000 3.906v4.319a6.383 6.383 0 003.125 5.5v.027a6.168 6.168 0 00-1.563 4.082V42.97c0 .602.236 1.147.61 1.562-.374.416-.61.96-.61 1.563a2.347 2.347 0 002.344 2.343h42.969c.862 0 1.563-.7 1.563-1.562V37.5c0-.862-.701-1.563-1.563-1.563h-12.5c-.862 0-1.563.701-1.563 1.563v9.375H31.25V37.5c0-.862-.7-1.563-1.563-1.563h-12.5c-.861 0-1.562.701-1.562 1.563v9.375h-3.269c.088-.245.144-.506.144-.781a2.33 2.33 0 00-.61-1.563c.376-.415.61-.96.61-1.562v-8.594h34.375c.862 0 1.563-.7 1.563-1.563v-12.5c0-.861-.701-1.562-1.563-1.562h-12.5c-.862 0-1.563.7-1.563 1.563v9.375H31.25v-9.375c0-.862-.7-1.563-1.563-1.563H18.75v-1.563h28.125zM39.062 37.5h3.126v1.563h-3.126V37.5zm-4.687 0H37.5v3.125h6.25V37.5h3.125v9.375h-12.5V37.5zM12.5 15.625c-.363 0-.694.13-.96.34a5.697 5.697 0 00-1.806-1.902h37.141v1.562H12.5zm26.563-12.5h3.124v1.563h-3.124V3.125zm-4.688 0H37.5V6.25h6.25V3.125h3.125V12.5h-12.5V3.125zm-12.5 0H25v1.563h-3.125V3.125zm-4.688 0h3.125V6.25h6.25V3.125h3.125V12.5h-12.5V3.125zm-7.812 7.813c0 .861-.7 1.562-1.563 1.562h-.78v2.865c0 .225-.335.335-.47.156l-1.875-2.5V7.812h4.688v3.125zM12.5 6.25H6.47l.39-1.563h5.64V6.25zM3.906 1.562h3.125a2.34 2.34 0 012.2 1.563h-2.37c-.72 0-1.343.487-1.516 1.184L4.859 6.25H1.563V3.906a2.347 2.347 0 012.343-2.344zM1.562 8.226v-.412h1.563v3.99a4.84 4.84 0 01-1.563-3.578zm2.608 6.71l1.143 1.523c.342.457.887.73 1.458.73a1.825 1.825 0 001.823-1.823v-.157a4.124 4.124 0 012.102 2.942l.242 1.445v2.28H9.374A3.128 3.128 0 016.25 18.75H4.687a4.692 4.692 0 004.688 4.688h3.906a.782.782 0 010 1.562H9.375a6.257 6.257 0 01-6.25-6.25v-.916a4.59 4.59 0 011.045-2.9zM15.48 25h.144v4.688H12.5v-3.125h.781a2.34 2.34 0 002.2-1.563zm-6.106 1.563h1.563v3.125H3.125v-6.27c1.426 1.904 3.693 3.145 6.25 3.145zm.781 17.187H7.812v-9.375H6.25v9.375H3.906a.782.782 0 01-.781-.781v-8.673a3.918 3.918 0 003.046-3.046h4.766v11.719c0 .431-.35.781-.78.781zm-7.031-12.5h1.419a2.342 2.342 0 01-1.419 1.419V31.25zm0 14.844c0-.431.35-.782.781-.782H6.25v1.563H3.906a.782.782 0 01-.781-.781zm18.75-8.594H25v1.563h-3.125V37.5zm-4.688 0h3.125v3.125h6.25V37.5h3.125v9.375h-12.5V37.5zm-9.375 9.375v-1.563h2.344a.782.782 0 010 1.563H7.812zM12.5 32.812V31.25h34.375v1.563H12.5zm26.563-12.5h3.124v1.563h-3.124v-1.563zm-4.688 0H37.5v3.125h6.25v-3.125h3.125v9.375h-12.5v-9.375zm-12.5 0H25v1.563h-3.125v-1.563zm-1.563 0v3.125h6.25v-3.125h3.125v9.375h-12.5V25c.862 0 1.563-.7 1.563-1.563v-3.125h1.563zm-3.125 3.125h-1.706a2.34 2.34 0 00-2.2-1.562H12.5v-4.688h4.688v6.25z" fill="#C24040"/></svg>