<svg width="50" height="50" fill="none" xmlns="http://www.w3.org/2000/svg"><path d="M3.397 38.838a.737.737 0 00.732-.732.738.738 0 00-.215-.52.74.74 0 00-.517-.213.743.743 0 00-.52.214.742.742 0 00-.214.519c0 .192.08.38.215.517a.74.74 0 00.519.215z" fill="#C24040"/><path d="M48.78 20.362h-4.351c-.673 0-1.221.547-1.221 1.22v.348h-2.11c-.673 0-1.22.548-1.22 1.221v1.512h-11.48c-.635 0-1.23.248-1.68.697l-.31.311-.077-.077c-.53-.531-1.468-.933-2.185-.934H10.122v-1.51c0-.672-.547-1.22-1.22-1.22h-2.11v-.348c0-.673-.548-1.22-1.22-1.22H1.22c-.674 0-1.221.547-1.221 1.22v18.811c0 .673.547 1.22 1.22 1.22H5.57c.673 0 1.221-.547 1.221-1.22v-.348h2.11c.673 0 1.22-.548 1.22-1.22v-.592l.881.63a2.487 2.487 0 002.493 2.716l.053-.001a2.484 2.484 0 002.5 2.563l.054-.002a2.507 2.507 0 00.725 1.834c.47.47 1.1.73 1.775.73l.053-.002a2.486 2.486 0 002.5 2.563 2.62 2.62 0 001.866-.779l.173-.173c.407.238.871.366 1.356.366a2.66 2.66 0 001.898-.786l.222-.222c.342-.344.572-.759.69-1.198.384.206.816.315 1.264.315a2.66 2.66 0 001.898-.786l.222-.222a2.67 2.67 0 00.675-1.143c.424.27.917.414 1.434.414a2.66 2.66 0 001.897-.785l.222-.223c.373-.374.612-.833.719-1.315a2.682 2.682 0 002.891-.597l.221-.222a2.698 2.698 0 00.334-3.392l.74-.417v.726c0 .673.547 1.22 1.22 1.22h2.11v.348c0 .673.548 1.221 1.22 1.221h4.351c.674 0 1.221-.548 1.221-1.22V21.581c0-.673-.547-1.22-1.22-1.22zM5.326 40.149H1.465V21.827h3.862v18.322zm8.169-.035a1.03 1.03 0 01-.737-.299c-.42-.421-.398-1.128.049-1.577l.324-.325c.224-.225.518-.348.828-.348.284 0 .545.106.738.299.42.42.397 1.128-.05 1.576l-.324.326a1.162 1.162 0 01-.828.348zm2.554 2.562a1.03 1.03 0 01-.738-.3c-.42-.42-.398-1.128.05-1.576l.324-.326c.224-.224.518-.348.828-.348.284 0 .545.107.737.299.42.421.398 1.129-.049 1.577l-.325.325a1.162 1.162 0 01-.827.349zm2.553 2.561a1.03 1.03 0 01-.737-.298c-.42-.422-.398-1.129.049-1.577l.325-.326c.224-.225.518-.348.827-.348.284 0 .546.106.738.299.42.42.398 1.128-.05 1.577l-.324.325a1.162 1.162 0 01-.828.348zm3.381 2.214a1.164 1.164 0 01-.827.348 1.03 1.03 0 01-.738-.299c-.42-.42-.397-1.128.05-1.576l.324-.326c.224-.225.518-.348.828-.348.284 0 .545.106.738.299.42.42.397 1.128-.05 1.576l-.325.326zm15.783-6.578l-.222.223a1.206 1.206 0 01-.86.355c-.326 0-.632-.126-.86-.355L30.1 35.353a.733.733 0 00-1.037 1.034l4.871 4.888a1.23 1.23 0 010 1.733l-.221.222c-.229.23-.534.356-.86.356a1.2 1.2 0 01-.86-.356l-5.63-5.647a.732.732 0 10-1.038 1.034l4.357 4.37.024.025a1.229 1.229 0 010 1.733l-.221.222c-.229.23-.534.355-.86.355-.327 0-.633-.126-.86-.355l-6.137-6.156a.733.733 0 00-1.038 1.034l5.042 5.058a1.229 1.229 0 010 1.732l-.221.223a1.223 1.223 0 01-1.412.224c.28-.886.08-1.881-.604-2.568a2.49 2.49 0 00-1.775-.73l-.053.002a2.486 2.486 0 00-2.5-2.563h-.053a2.486 2.486 0 00-2.5-2.563l-.054.002a2.487 2.487 0 00-2.5-2.563c-.703 0-1.365.277-1.866.78l-.325.325c-.08.08-.152.163-.219.25l-1.428-1.022V34.69a.733.733 0 00-1.465 0v3.89H6.792V23.395h1.866v7.78a.732.732 0 101.465 0v-5.05h14.022c.327 0 .896.25 1.148.503l.081.081-5.196 5.212a2.958 2.958 0 00-.868 2.04 2.78 2.78 0 002.795 2.857c.787 0 1.53-.311 2.09-.874l1.778-1.783c.68.392 1.459.603 2.249.603 1.204 0 2.336-.47 3.186-1.324l.338-.34 6.021 6.041a1.229 1.229 0 010 1.732zm3.575-2.293v-6.722a.733.733 0 00-1.465 0v4.559l-1.765.996-5.331-5.35.794-.796a.733.733 0 00-1.038-1.034l-2.166 2.173a3.014 3.014 0 01-2.15.893 3.041 3.041 0 01-1.884-.656.733.733 0 00-.975.056l-2.204 2.211a1.48 1.48 0 01-1.053.442c-.363 0-.699-.136-.946-.384a1.34 1.34 0 01-.384-.98 1.5 1.5 0 01.44-1.033l6.541-6.56a.9.9 0 01.642-.267h11.48v2.215a.732.732 0 101.464 0v-4.948h1.866V38.58h-1.866zm7.193 1.569h-3.862V21.827h3.862v18.322z" fill="#C24040"/><path d="M46.605 38.838c.192 0 .38-.078.517-.215a.74.74 0 00.214-.517.741.741 0 00-.214-.52.742.742 0 00-.517-.213.741.741 0 00-.519.214.738.738 0 00-.215.519.737.737 0 00.734.732zM25 23.538c1.51 0 2.99-.408 4.282-1.178a.733.733 0 00-.751-1.258 6.89 6.89 0 01-3.53.97c-3.816 0-6.92-3.114-6.92-6.943 0-3.828 3.104-6.943 6.92-6.943 3.814 0 6.918 3.115 6.918 6.943a6.954 6.954 0 01-.977 3.561.732.732 0 101.257.75 8.416 8.416 0 001.185-4.31c0-4.637-3.76-8.409-8.384-8.409-4.623 0-8.384 3.772-8.384 8.408 0 4.637 3.761 8.409 8.384 8.409z" fill="#C24040"/><path d="M22.475 14.022v-.79a.732.732 0 10-1.465 0v.79a.732.732 0 101.465 0zm6.515 0v-.79a.732.732 0 10-1.465 0v.79a.732.732 0 101.465 0zM25 19.5c1.747 0 3.169-1.306 3.169-2.91a.733.733 0 00-1.465 0c0 .796-.765 1.444-1.704 1.444-.94 0-1.704-.648-1.704-1.444a.733.733 0 00-1.465 0c0 1.604 1.421 2.91 3.169 2.91zm12.198-8.693c2.757 0 5-2.249 5-5.013 0-.746-.165-1.454-.459-2.091l.628-.63a.733.733 0 10-1.038-1.034l-.41.412A4.981 4.981 0 0037.2.78c-2.757 0-5 2.249-5 5.013s2.242 5.013 4.999 5.013zm0-8.56c1.074 0 2.036.483 2.685 1.243l-2.685 2.694-1.56-1.566a.733.733 0 00-1.037 1.035l1.871 1.878c.194.194.452.3.726.3.275 0 .532-.106.726-.3l2.678-2.688a3.545 3.545 0 01-3.404 4.499 3.545 3.545 0 01-3.534-3.548 3.546 3.546 0 013.534-3.548zM7.982 10.716l-.258 1.509c-.085.49.113.977.516 1.27a1.293 1.293 0 001.369.1l1.355-.713 1.354.712a1.305 1.305 0 001.369-.099c.402-.293.6-.78.516-1.27l-.258-1.509 1.096-1.068c.356-.348.482-.858.328-1.332a1.291 1.291 0 00-1.049-.884l-1.514-.22-.677-1.373a1.292 1.292 0 00-1.165-.724c-.499 0-.945.277-1.165.724L9.12 7.212l-1.515.22a1.29 1.29 0 00-1.048.884c-.154.474-.028.984.328 1.332l1.096 1.068zm1.73-2.11a.732.732 0 00.552-.401l.7-1.417.698 1.417a.733.733 0 00.552.401l1.564.227-1.132 1.103a.732.732 0 00-.21.648l.267 1.557-1.399-.735a.734.734 0 00-.681 0l-1.399.735.267-1.557a.732.732 0 00-.21-.648L8.149 8.833l1.564-.227z" fill="#C24040"/></svg>