<svg width="50" height="50" fill="none" xmlns="http://www.w3.org/2000/svg"><path d="M17.147 24.689a.74.74 0 00-1.003.295l-2.34 4.286-2.849-5.216a.74.74 0 00-1.298 0l-4.323 7.918-.002.003L4 34.413a.74.74 0 101.298.709l.864-1.582.859.858a.74.74 0 001.046 0l.463-.463 1.252 1.252a.737.737 0 00.68.2l-4.85 8.883a.74.74 0 001.299.71l10.53-19.288a.74.74 0 00-.295-1.003zm-5.589 7.677l-1.252 1.253-1.252-1.253a.74.74 0 00-1.046 0l-.463.464-.643-.643 3.404-6.235 2.655 4.862-.737 1.35a.739.739 0 00-.666.202zm-8.21 4.786a.74.74 0 00-1.003.294L.09 41.575a.74.74 0 101.298.708l2.254-4.128a.74.74 0 00-.295-1.003zm46.562.379l-5.241-9.599-.002-.003-1.499-2.745a.74.74 0 10-1.298.709l1.229 2.25-.643.643-.463-.463a.74.74 0 00-1.047 0l-1.252 1.252-1.252-1.252a.74.74 0 00-1.046 0l-.463.463-.643-.643 3.404-6.235.517.946a.74.74 0 001.298-.709l-1.165-2.134a.74.74 0 00-1.299 0l-3.952 7.237-9.353-17.131V7.594h7.741a.74.74 0 00.613-1.155l-1.79-2.642 1.79-2.643A.74.74 0 0033.48 0H25a.74.74 0 00-.74.74v9.377l-6.463 11.837a.74.74 0 001.298.71l1.761-3.227.859.86a.74.74 0 001.046 0l.463-.464 1.252 1.252a.737.737 0 001.046 0l1.252-1.252.463.463a.74.74 0 001.047 0l.858-.859L43.09 44.98a.74.74 0 101.298-.71l-7.48-13.7a.736.736 0 00.55-.215l.462-.463 1.252 1.252a.737.737 0 001.047 0l1.251-1.252.464.463a.74.74 0 001.046 0l.858-.858 4.774 8.743a.74.74 0 101.299-.709zM30.798 4.211l1.289 1.904H25.74V1.479h6.347l-1.289 1.903a.74.74 0 000 .83zm-3.036 14.516l-.464-.463a.74.74 0 00-1.046 0L25 19.516l-1.252-1.252a.74.74 0 00-1.046 0l-.463.463-.643-.643L25 11.85l3.404 6.235-.642.643z" fill="#C24040"/><path d="M29.456 32.544h1.856a.74.74 0 00.569-1.212l-6.312-7.594a.74.74 0 00-1.138 0l-6.311 7.594a.74.74 0 00.569 1.212h1.855l-5.126 16.497a.74.74 0 00.706.959h17.752a.74.74 0 00.706-.96l-5.126-16.496zM17.13 48.521l5.126-16.497a.74.74 0 00-.707-.959h-1.283L25 25.368l4.735 5.697h-1.283a.74.74 0 00-.707.96l5.126 16.496H17.13z" fill="#C24040"/></svg>