<svg width="50" height="50" fill="none" xmlns="http://www.w3.org/2000/svg"><path d="M13.34 39.443h-1.316v-1.385a7.24 7.24 0 004.749-4.762c.128.028.259.043.39.043 1.363 0 2.38-1.701 2.38-3.222 0-1.188-.616-1.986-1.391-2.347.2-.819.416-2.19.13-3.67-.214-1.115-.67-2.738-2.14-3.952-1.416-1.17-3.483-1.738-6.318-1.738-2.013 0-3.618.284-4.904.867a.732.732 0 10.604 1.334c1.078-.488 2.524-.736 4.3-.736 2.446 0 4.258.472 5.386 1.403.853.704 1.357 1.66 1.634 3.1.276 1.431-.032 2.779-.2 3.352-.403.232-.668.648-.823 1.12-.973-1.635-2.742-2.3-4.459-2.945-1.452-.547-2.824-1.062-3.715-2.121-.694-.827-1.434-.747-1.813-.627-1.116.357-1.846 1.92-1.923 2.865-.007.072-.118 1.467-.236 2.454-.158-.313-.378-.578-.67-.745-.168-.576-.476-1.922-.201-3.353.16-.83.399-1.5.73-2.049a.732.732 0 00-1.254-.757c-.422.699-.721 1.526-.914 2.529-.285 1.478-.07 2.85.132 3.67-.776.36-1.393 1.158-1.393 2.346 0 1.52 1.019 3.222 2.381 3.222.132 0 .262-.015.39-.043a7.238 7.238 0 004.754 4.762v1.385H6.309A6.316 6.316 0 000 45.752v3.516c0 .404.328.732.732.732h18.185a.732.732 0 00.732-.732v-3.516a6.316 6.316 0 00-6.309-6.309zm-4.246 1.465h1.465v3.702a.733.733 0 01-1.465 0v-3.702zm8.07-9.034a.37.37 0 01-.098-.013c.059-.58.03-.913.038-1.831.003-.413.128-.861.237-.996.366.073.738.387.738 1.083 0 .926-.622 1.757-.916 1.757zM1.57 30.117c0-.696.372-1.01.738-1.083.11.135.234.583.238.994.007.92-.021 1.253.038 1.832a.366.366 0 01-.098.014c-.294 0-.916-.831-.916-1.757zm2.522 1.974l-.001-.005c-.106-.63-.075-1.077-.08-1.27a1.13 1.13 0 00.747-.522c.368-.602.494-2.97.613-4.151.048-.587.557-1.478.908-1.59.072-.023.197.113.247.173 1.138 1.353 2.756 1.961 4.32 2.55 1.82.684 3.393 1.275 3.982 2.886.131.36.427.604.81.676-.005.18.025.621-.08 1.247v.006a5.79 5.79 0 01-5.738 4.837 5.788 5.788 0 01-5.728-4.837zm6.468 6.265v1.087H9.095v-1.087c.47.047.963.05 1.465 0zm7.624 10.18H1.464v-2.784a4.85 4.85 0 014.845-4.844h1.32v3.702a2.2 2.2 0 002.198 2.197 2.2 2.2 0 002.197-2.197v-3.702h1.316a4.85 4.85 0 014.844 4.844v2.783zM35.43 26.788l-.554 1.121a1.08 1.08 0 01-.816.591l-1.24.18a1.536 1.536 0 00-1.25 1.052 1.533 1.533 0 00.393 1.583l.898.872c.254.248.37.605.31.955l-.211 1.232c-.1.583.134 1.161.613 1.51a1.542 1.542 0 001.63.119l1.109-.582a1.088 1.088 0 011.01 0l1.11.582c.525.275 1.149.23 1.628-.12.479-.348.714-.926.614-1.509l-.212-1.232a1.08 1.08 0 01.31-.955l.898-.872c.425-.413.575-1.02.393-1.583a1.536 1.536 0 00-1.249-1.052l-1.24-.18a1.083 1.083 0 01-.816-.59l-.555-1.122a1.537 1.537 0 00-1.386-.86c-.593 0-1.124.33-1.386.86zm1.46.65l.555 1.12a2.547 2.547 0 001.918 1.392l1.24.18a.07.07 0 01.066.054.07.07 0 01-.02.08l-.898.873a2.54 2.54 0 00-.733 2.253l.212 1.233c.003.015.008.047-.031.076-.042.03-.073.014-.087.006l-1.11-.582a2.552 2.552 0 00-2.37 0l-1.11.582a.074.074 0 01-.087-.006c-.04-.029-.034-.061-.032-.076l.212-1.233a2.54 2.54 0 00-.733-2.253l-.898-.873c-.011-.01-.035-.034-.02-.08a.072.072 0 01.065-.054l1.241-.18c.83-.12 1.547-.64 1.919-1.391l.554-1.122c.008-.014.023-.044.074-.044.05 0 .066.03.073.044zm-9.013-6.915c0 .62.504 1.123 1.123 1.123h5.078c.62 0 1.123-.503 1.123-1.123v-5.078c0-.619-.504-1.123-1.123-1.123H29c-.62 0-1.123.504-1.123 1.123v5.078zm1.465-4.736h4.394v4.394h-4.394v-4.394zm9.232 1.172h6.25a.732.732 0 000-1.465h-6.25a.732.732 0 100 1.465zm0 3.125h6.25a.732.732 0 000-1.465h-6.25a.732.732 0 100 1.465zm4.834 19.125H30.225a.732.732 0 100 1.465h13.183a.732.732 0 100-1.465zm0 3.125H30.225a.732.732 0 100 1.465h13.183a.732.732 0 100-1.465zm-9.33-37.777H29c-.62 0-1.123.503-1.123 1.123v5.078c0 .619.504 1.123 1.123 1.123h5.078c.62 0 1.123-.504 1.123-1.123V5.68c0-.62-.504-1.123-1.123-1.123zm-.342 5.859h-4.394V6.02h4.394v4.395zm4.838-3.223h6.25a.732.732 0 100-1.465h-6.25a.732.732 0 100 1.465zm0 3.125h6.25a.732.732 0 100-1.465h-6.25a.732.732 0 100 1.465z" fill="#C24040"/><path d="M49.268 45.366a.732.732 0 00-.733.733v1.216c0 .673-.547 1.22-1.22 1.22H26.807a1.222 1.222 0 01-1.221-1.22v-8.647a.732.732 0 00-.732-.732h-3.436l3.891-3.09a.732.732 0 00.277-.574V9.352a.732.732 0 10-1.465 0v24.566l-5.258 4.176a.732.732 0 00.456 1.306h4.802v7.915A2.688 2.688 0 0026.807 50h20.508A2.688 2.688 0 0050 47.315v-1.216a.732.732 0 00-.732-.733zM47.315 0H26.807a2.689 2.689 0 00-2.686 2.686V6.19a.732.732 0 101.465 0V2.686c0-.674.548-1.221 1.22-1.221h20.509c.673 0 1.22.547 1.22 1.22v40.27a.732.732 0 101.465 0V2.686A2.689 2.689 0 0047.315 0z" fill="#C24040"/></svg>