<svg width="39" height="50" fill="none" xmlns="http://www.w3.org/2000/svg"><path d="M38.44 10.124L19.647.11a.934.934 0 00-.89.005L.487 10.13a.936.936 0 00-.486.82v13.08a27.083 27.083 0 0016.233 24.788l2.536 1.105a.935.935 0 00.745.001l2.858-1.234a27.03 27.03 0 0016.561-24.92V10.95a.936.936 0 00-.495-.826zM37.064 23.77a25.163 25.163 0 01-15.425 23.198l-.006.003-2.489 1.074-2.162-.943A25.21 25.21 0 011.87 24.03V11.503L19.214 2l17.85 9.511v12.26z" fill="#C24040"/><path d="M12.312 23.423a.936.936 0 00-1.424 1.215l4.942 5.787a.935.935 0 001.302.119l11.51-9.364a.935.935 0 10-1.181-1.452L16.66 28.515l-4.348-5.092z" fill="#C24040"/></svg>