<svg width="46" height="50" fill="none" xmlns="http://www.w3.org/2000/svg"><path d="M22.738 44.415c9.458 0 17.153-7.695 17.153-17.153 0-9.458-7.695-17.153-17.153-17.153-9.458 0-17.153 7.695-17.153 17.153 0 9.458 7.695 17.153 17.153 17.153zM9.967 26.343H7.45a15.253 15.253 0 013.833-9.236l1.773 1.774a.916.916 0 001.3 0 .919.919 0 000-1.3l-1.774-1.773a15.253 15.253 0 019.236-3.833v2.516a.919.919 0 001.838 0v-2.516a15.252 15.252 0 019.235 3.833L31.12 17.58a.919.919 0 001.3 1.3l1.773-1.774a15.252 15.252 0 013.833 9.236H35.51a.919.919 0 100 1.838h2.516a15.252 15.252 0 01-3.833 9.235l-1.774-1.773a.919.919 0 00-1.3 1.3l1.774 1.773a15.252 15.252 0 01-9.235 3.833v-2.516a.919.919 0 10-1.838 0v2.516a15.253 15.253 0 01-9.236-3.833l1.774-1.774a.919.919 0 10-1.3-1.3l-1.773 1.774a15.253 15.253 0 01-3.833-9.235h2.516a.919.919 0 000-1.838z" fill="#C24040"/><path d="M33.88 44.948a20.838 20.838 0 01-11.142 3.214c-11.524 0-20.9-9.376-20.9-20.9A20.7 20.7 0 016.185 14.5a.919.919 0 10-1.455-1.123C1.636 17.384 0 22.186 0 27.262 0 39.8 10.2 50 22.738 50c4.307 0 8.499-1.21 12.123-3.498a.919.919 0 10-.98-1.554zm-5.6-39.74V1.725C28.28.774 27.507 0 26.556 0H18.92c-.951 0-1.725.774-1.725 1.725v3.482A22.668 22.668 0 007.33 10.54a.92.92 0 001.246 1.351 20.838 20.838 0 0114.162-5.53c11.525 0 20.9 9.376 20.9 20.9 0 5.916-2.523 11.58-6.923 15.54a.919.919 0 001.23 1.366 22.78 22.78 0 007.532-16.905c0-10.627-7.329-19.573-17.197-22.054zm-9.246-.383V1.838h7.409v2.989a22.793 22.793 0 00-7.409-.002z" fill="#C24040"/><path d="M22.738 27.905c.345 0 .645-.19.802-.47l3.17-3.17a.919.919 0 10-1.3-1.3l-1.753 1.753v-4.475a.919.919 0 10-1.838 0v6.743c0 .508.412.92.92.92z" fill="#C24040"/></svg>